PathFileType	4	(X/Y/Z)	C:/Users/opensim2020/Desktop/walking_exp_matlab/subject03_walking13_straight_01.trc	
DataRate	CameraRate	NumFrames	NumMarkers	Units	OrigDataRate	OrigDataStartFrame	OrigNumFrames	
100.00	100.00	6	46	mm	100.00	638	185	
Frame#	Time	LFHD			RFHD			LBHD			RBHD			C7			T10			CLAV			STRN			RBAK			LSHO			LUPA			LELB			LFRM			LWRA			LWRB			LFIN			RSHO			RUPA			RELB			RFRM			RWRA			RWRB			RFIN			LASI			RASI			LPSI			RPSI			LTHI			LKNE			LTIB			LANK			LHEE			LTOE			RTHI			RKNE			RTIB			RANK			RHEE			RTOE			*39			*40			*41			*42			*43			*44			*45			
		X1	Y1	Z1	X2	Y2	Z2	X3	Y3	Z3	X4	Y4	Z4	X5	Y5	Z5	X6	Y6	Z6	X7	Y7	Z7	X8	Y8	Z8	X9	Y9	Z9	X10	Y10	Z10	X11	Y11	Z11	X12	Y12	Z12	X13	Y13	Z13	X14	Y14	Z14	X15	Y15	Z15	X16	Y16	Z16	X17	Y17	Z17	X18	Y18	Z18	X19	Y19	Z19	X20	Y20	Z20	X21	Y21	Z21	X22	Y22	Z22	X23	Y23	Z23	X24	Y24	Z24	X25	Y25	Z25	X26	Y26	Z26	X27	Y27	Z27	X28	Y28	Z28	X29	Y29	Z29	X30	Y30	Z30	X31	Y31	Z31	X32	Y32	Z32	X33	Y33	Z33	X34	Y34	Z34	X35	Y35	Z35	X36	Y36	Z36	X37	Y37	Z37	X38	Y38	Z38	X39	Y39	Z39	X40	Y40	Z40	X41	Y41	Z41	X42	Y42	Z42	X43	Y43	Z43	X44	Y44	Z44	X45	Y45	Z45	X46	Y46	Z46	

93	0.920	-1058.48499	-172.93401	1615.54480	-927.25433	-195.63672	1622.43152	-1072.28650	-289.23941	1549.08142	-942.76654	-306.93942	1555.93811	-999.09381	-307.01593	1400.95898	-994.66388	-347.59009	1093.26697	-994.44562	-182.82838	1327.72778	-996.71667	-140.50519	1159.75195	-900.20471	-362.44968	1231.66724	-1150.20044	-238.99834	1363.34216	-1217.69458	-268.48117	1166.24866	-1229.88586	-271.82178	1043.15588	-1234.65063	-263.97446	912.52960	-1210.38342	-261.97995	791.55536	-1259.57935	-286.78479	802.51031	-1254.24988	-285.93185	717.99017	-838.65222	-239.81119	1361.73718	-752.83118	-206.15475	1150.47485	-735.04333	-161.34015	1047.37256	-731.02527	-103.57778	923.12262	-766.39227	-46.75071	841.20526	-721.08710	-73.02019	828.14740	-729.41046	-27.90934	769.72729	-1105.13794	-190.09151	922.04517	-870.91504	-201.35532	923.66443	-1066.81604	-355.68896	944.89825	-917.57916	-358.20554	962.21301	-1160.55762	-161.48242	631.88275	-1119.08484	-84.94176	473.87616	-1119.80859	-92.97381	277.44867	-1080.47949	-67.69205	68.51999	-1043.03796	-102.89696	27.90408	-1050.75220	79.98802	60.02466	-834.46222	-300.18472	636.64038	-870.12640	-322.54779	458.68118	-869.50153	-409.24341	284.81940	-920.25238	-484.14661	80.72945	-971.70129	-531.82440	54.64035	-931.01172	-347.64746	31.18662																					 
94	0.930	-1059.00671	-158.79167	1613.29541	-927.82227	-181.71268	1620.50586	-1072.66748	-275.13617	1546.67456	-943.19556	-292.95041	1553.90344	-999.10669	-292.71774	1398.94775	-995.45465	-333.99432	1091.62158	-994.33307	-168.66208	1325.53943	-996.26776	-126.75027	1157.47168	-900.35999	-348.83936	1229.85815	-1150.22998	-224.80441	1361.04712	-1217.37610	-257.01678	1163.95715	-1229.96863	-262.48257	1041.15601	-1235.53235	-258.65500	910.39386	-1212.03479	-261.13467	789.13147	-1261.43494	-285.17142	801.44220	-1256.57056	-288.41861	716.68561	-838.61615	-226.03912	1360.01221	-752.39343	-190.66954	1149.63647	-734.57196	-144.10408	1047.31128	-730.90186	-83.43329	924.50006	-766.70734	-24.33972	844.56293	-721.43732	-50.41258	830.36896	-729.96301	-3.55148	773.36200	-1105.37463	-175.46855	919.81873	-871.08545	-188.29749	921.50580	-1068.45264	-341.09735	942.54443	-919.11865	-344.97183	960.18066	-1161.40820	-149.47813	628.36139	-1117.43286	-69.56944	472.62238	-1119.86682	-69.88824	277.16602	-1082.20190	-35.80748	69.02025	-1045.11694	-69.89339	26.91837	-1052.43042	112.25077	63.89001	-834.81055	-289.77698	635.55170	-870.04358	-313.75998	457.58746	-869.51727	-403.91367	285.23502	-920.13324	-483.14615	82.56802	-971.64978	-530.93842	57.12394	-930.91626	-347.40756	31.05620				-1027.56641	-257.73651	1657.12866															 
95	0.940	-1059.54211	-144.64032	1611.13989	-928.36340	-167.73579	1618.68628	-1073.12207	-260.93839	1544.42078	-943.70129	-278.85034	1551.93481	-999.15497	-278.59070	1397.07373	-996.17065	-319.95291	1089.72437	-994.28070	-154.47720	1323.39185	-995.90967	-112.87864	1155.28589	-900.50952	-335.03461	1228.09290	-1150.34375	-210.55751	1358.88293	-1217.24719	-245.40125	1162.02051	-1230.14026	-253.11618	1039.42346	-1236.44873	-252.96767	908.66907	-1213.70996	-259.90579	787.12671	-1263.13330	-282.88593	800.77551	-1258.71619	-290.03171	716.11249	-838.74213	-212.18578	1358.24536	-752.06683	-175.42578	1148.73682	-734.18616	-127.22837	1047.18665	-730.89850	-63.69300	925.93335	-767.14050	-2.72081	847.63904	-721.97412	-28.29569	832.61115	-730.55090	20.12285	777.19507	-1105.51282	-160.69818	917.73523	-871.54303	-174.74146	919.60974	-1070.15430	-326.43192	940.50470	-920.79767	-331.57941	958.26233	-1162.56006	-137.60147	624.69598	-1116.13586	-54.03662	471.60190	-1119.86841	-48.09885	277.02844	-1083.28784	-6.88624	69.83775	-1046.29163	-40.00700	26.44486	-1054.21460	141.58473	67.39896	-835.13019	-278.87158	634.35364	-869.93799	-304.61563	456.52682	-869.46851	-398.33768	285.84567	-919.74615	-482.07901	84.91199	-971.40149	-530.17957	60.33744	-930.86761	-347.18900	30.94010																					 
96	0.950	-1060.01001	-130.46419	1609.01929	-928.87476	-153.65924	1616.93323	-1073.58228	-246.70320	1542.28345	-944.14404	-264.72995	1550.13245	-999.38715	-264.33670	1395.13513	-996.88672	-305.60648	1087.83606	-994.30249	-140.22054	1321.38159	-995.70264	-98.81278	1153.28003	-900.69629	-321.15900	1226.43567	-1150.58350	-196.13803	1356.94202	-1217.47339	-233.69762	1160.37646	-1230.57227	-243.49629	1038.04590	-1237.31799	-246.79373	907.29254	-1214.94531	-257.64520	785.81903	-1264.62671	-279.72672	800.52350	-1260.54163	-290.76001	716.07849	-838.92456	-198.25955	1356.53821	-751.79968	-160.39059	1147.83862	-733.90039	-110.80122	1046.99719	-730.82635	-44.54953	927.30316	-767.68909	18.41175	850.81439	-722.63800	-6.79671	834.94452	-731.31543	43.19255	781.07080	-1105.68237	-145.66794	915.87689	-871.70111	-161.22964	917.84534	-1071.87158	-311.42239	938.50824	-922.49036	-317.91034	956.30267	-1163.64417	-125.06235	621.68243	-1115.13879	-38.79196	470.65195	-1119.69690	-27.66149	276.78494	-1083.69202	19.05437	70.57231	-1046.85095	-13.03480	26.37597	-1055.81970	168.05377	70.64746	-835.39398	-267.58896	633.19397	-869.80267	-295.11026	455.54657	-869.33612	-392.42142	286.61853	-919.53064	-480.72623	87.43744	-970.90137	-529.70410	64.45238	-930.80646	-346.96854	30.81850																					 
97	0.960	-1060.54382	-116.26083	1607.14294	-929.41333	-139.57639	1615.31348	-1074.08862	-232.46733	1540.26685	-944.67432	-250.62889	1548.45264	-999.66339	-250.17450	1393.36011	-997.54205	-291.15646	1086.07910	-994.47119	-125.88045	1319.55920	-995.59998	-84.63458	1151.49451	-900.98413	-307.10022	1224.88013	-1150.96191	-181.58511	1355.27551	-1217.82788	-221.93639	1159.10059	-1231.11328	-233.59859	1036.95471	-1238.08350	-239.97559	906.33972	-1215.65576	-254.29344	785.03711	-1265.89038	-275.45602	800.60687	-1261.93738	-290.51187	716.49884	-839.24329	-184.24118	1354.94592	-751.70825	-145.43192	1146.96729	-733.71582	-94.80516	1046.78503	-731.38617	-25.82223	928.70721	-768.35376	38.90569	854.01917	-723.51953	14.09457	837.26227	-732.13641	65.66149	785.10461	-1105.65967	-130.44624	914.33264	-871.17444	-148.26031	915.94531	-1073.52368	-296.27582	936.89502	-924.13562	-303.95413	954.40662	-1164.42090	-110.97877	619.82935	-1114.64209	-23.63354	469.82626	-1119.39917	-8.70397	276.27405	-1083.49988	41.87077	70.95499	-1045.85229	10.69958	26.15982	-1057.10315	191.25194	73.31172	-835.57178	-256.02475	632.14856	-869.60278	-285.05005	454.58749	-869.20190	-386.09509	287.60922	-919.14984	-479.02689	90.43974	-970.48389	-528.48383	68.67600	-930.67194	-346.68622	30.69406																					 
98	0.970	-1061.11365	-102.01479	1605.48584	-930.08728	-125.40202	1613.90002	-1074.56909	-218.24437	1538.53125	-945.23248	-236.43227	1546.95044	-1000.21539	-235.90227	1391.80627	-998.18176	-276.46582	1084.41760	-994.79126	-111.47632	1317.93616	-995.65466	-70.21301	1149.92468	-901.46832	-292.99356	1223.50781	-1151.41968	-166.86867	1353.86792	-1218.67834	-209.78896	1158.33936	-1231.71912	-223.12144	1036.21289	-1238.71802	-232.22034	905.74158	-1216.25134	-250.02380	784.67542	-1266.97913	-269.79477	800.91974	-1262.84460	-289.00635	717.36932	-839.76471	-170.20901	1353.45386	-751.67261	-130.64709	1146.15332	-733.56781	-79.30821	1046.50549	-731.75616	-7.80732	930.03363	-769.15234	58.71553	857.19818	-724.47034	34.24057	839.55499	-733.11444	87.26978	789.12952	-1105.66187	-114.75922	913.21198	-871.24719	-134.06757	914.31439	-1075.00671	-280.99048	935.62195	-925.62085	-289.51874	952.51941	-1164.44202	-95.29984	619.02228	-1114.36206	-8.62536	469.08847	-1119.06555	8.69725	275.51837	-1082.92957	61.51698	70.76292	-1044.94019	31.24039	25.65266	-1057.49219	211.36118	75.06245	-835.75214	-244.06821	631.27454	-869.29767	-274.35114	453.61185	-869.00330	-379.12924	288.69897	-918.58386	-476.97794	93.82344	-969.92889	-526.93982	73.49733	-930.74738	-346.39410	30.47812																					 
